<?xml version="1.0" encoding="UTF-8"?>
<!DOCTYPE svg PUBLIC "-//W3C//DTD SVG 1.1//EN" "http://www.w3.org/Graphics/SVG/1.1/DTD/svg11.dtd">
<!-- Creator: CorelDRAW 2017 -->
<svg xmlns="http://www.w3.org/2000/svg" xml:space="preserve" width="200px" height="200px" version="1.1" style="shape-rendering:geometricPrecision; text-rendering:geometricPrecision; image-rendering:optimizeQuality; fill-rule:evenodd; clip-rule:evenodd"
viewBox="0 0 136.055 136.055"
 xmlns:xlink="http://www.w3.org/1999/xlink">
 <defs>
  <style type="text/css">
   <![CDATA[
    .fil0 {fill:#0083C4}
    .fil1 {fill:white;fill-rule:nonzero}
   ]]>
  </style>
 </defs>
 <g id="Layer_x0020_1">
  <metadata id="CorelCorpID_0Corel-Layer"/>
  <rect class="fil0" width="136.054" height="136.054"/>
  <path class="fil1" d="M28.98 99.685c-6.229,0 -10.688,-1.679 -13.379,-5.034 -2.691,-3.357 -4.036,-8.723 -4.036,-16.1 0,-3.991 0.514,-9.252 1.542,-15.783 1.632,-10.461 4.837,-18.306 9.614,-23.537 4.777,-5.23 11.338,-7.846 19.683,-7.846 5.079,0 9.372,0.272 12.879,0.817 3.508,0.544 6.894,1.33 10.159,2.358l-1.633 10.431c-5.502,-1.028 -12.123,-1.542 -19.863,-1.542 -3.87,0 -6.924,0.725 -9.161,2.177 -2.238,1.451 -3.991,3.749 -5.261,6.893 -1.27,3.144 -2.358,7.559 -3.265,13.243 -0.726,4.898 -1.089,8.798 -1.089,11.7 0,3.266 0.68,5.714 2.041,7.347 1.36,1.633 3.522,2.449 6.485,2.449 2.056,0 4.46,-0.211 7.211,-0.635 2.751,-0.423 4.883,-0.846 6.395,-1.27l2.086 -13.152 -12.064 0 1.724 -10.612c0.423,-0.06 2.055,-0.211 4.898,-0.453 2.842,-0.242 6.258,-0.363 10.249,-0.363 3.81,0 7.105,0.061 9.887,0.181l-5.987 38.186 -10.159 0 -1.088 -4.535c-1.935,1.149 -4.762,2.283 -8.481,3.401 -3.719,1.119 -6.848,1.679 -9.387,1.679z"/>
  <path id="1" class="fil1" d="M84.943 99.685c-3.87,0 -7.226,-0.847 -10.068,-2.54 -2.842,-1.693 -4.263,-4.777 -4.263,-9.252 0,-1.088 0.091,-2.207 0.272,-3.356l5.896 -37.097c1.572,-10.28 7.558,-15.42 17.959,-15.42 8.042,0 17.173,0.393 27.392,1.179l-1.814 11.247 -23.673 0c-2.117,0 -3.719,0.515 -4.808,1.543 -1.088,1.027 -1.813,2.63 -2.176,4.807l-1.361 8.707 25.125 0.816 -1.724 10.613 -25.306 0.725 -1.451 9.343c-0.121,0.846 -0.181,1.421 -0.181,1.723 0,1.572 0.453,2.691 1.36,3.356 0.907,0.665 2.298,0.998 4.173,0.998l23.31 0 -1.723 11.247c-11.368,0.847 -20.348,1.3 -26.939,1.361z"/>
 </g>
</svg>
